<?xml version="1.0" encoding="iso-8859-1"?>
<!-- Generator: Adobe Illustrator 19.0.0, SVG Export Plug-In . SVG Version: 6.00 Build 0)  -->
<svg xmlns="http://www.w3.org/2000/svg" xmlns:xlink="http://www.w3.org/1999/xlink" version="1.1" id="Layer_1" x="0px" y="0px" viewBox="0 0 512 512" style="enable-background:new 0 0 512 512;" xml:space="preserve">
<path style="fill:#F4CF9D;" d="M504.348,214.171c0-14.885-12.065-26.956-26.955-26.956c-110.526,0-89.793,0.008-117.048-0.027  c37.676-55.204,42.937-157.699,7.885-157.699c-35.051,0-25.409,86.75-70.096,115.664c-44.689,28.918-69.225,99.017-69.225,99.017  h-50.632v150.715h62.021c37.989,10.601,52.453,7.967,205.22,7.967c14.885,0,26.954-12.068,26.954-26.955  c0-14.886-12.067-26.954-26.954-26.954h10.625c14.885,0,26.955-12.07,26.955-26.957s-12.069-26.954-26.955-26.954h10.625  c14.885,0,26.954-12.07,26.954-26.957s-12.068-26.953-26.954-26.953h10.624C492.282,241.126,504.348,229.057,504.348,214.171z"/>
<path style="fill:#88DCE5;" d="M164.501,219.636h-35.295v219.501h35.295c8.71,0,15.773-7.064,15.773-15.775V235.408  C180.275,226.699,173.212,219.636,164.501,219.636z"/>
<path style="fill:#74C4C4;" d="M164.501,332.862h-35.295v106.276h35.295c8.71,0,15.773-7.064,15.773-15.775V317.089  C180.275,325.799,173.212,332.862,164.501,332.862z"/>
<path style="fill:#EFBF86;" d="M178.276,244.171v150.715h62.021c37.68,10.514,74.091,7.967,74.091,7.967  c-115.941,0-99.933-158.682-99.933-158.682H178.276z"/>
<path style="fill:#6B6968;" d="M7.653,466.737c0,8.712,7.061,15.774,15.773,15.774h92.007c8.71,0,15.773-7.061,15.773-15.774  V202.988c0-8.712-7.062-15.773-15.773-15.773H23.426c-8.711,0-15.773,7.06-15.773,15.773C7.653,202.988,7.653,466.737,7.653,466.737  z"/>
<path style="fill:#51504E;" d="M115.433,345.208H23.426c-8.711,0-15.773-7.062-15.773-15.775v137.304  c0,8.712,7.061,15.774,15.773,15.774h92.007c8.71,0,15.773-7.061,15.773-15.774V329.434  C131.205,338.145,124.143,345.208,115.433,345.208z"/>
<path d="M512,214.145c0-19.008-15.464-34.472-34.471-34.472H372.299c34.387-59.448,39.134-157.823-4.001-157.823  c-43.439,0-31.533,89.324-74.214,116.94c-39.749,25.721-63.72,80.846-70.389,97.874h-35.967c0-15.449-11.384-24.55-23.283-24.55  h-25.816v-9.158c0-12.837-10.444-23.282-23.283-23.282H23.283C10.444,179.673,0,190.118,0,202.956v263.911  c0,12.839,10.444,23.284,23.283,23.284h92.063c12.838,0,23.283-10.444,23.283-23.284v-20.116h25.816  c12.838,0,23.283-10.444,23.283-23.284v-20.995h51.543c24.966,6.826,54.888,9.275,75.401,7.973h77.222c4.143,0,7.5-3.357,7.5-7.5  c0-4.143-3.357-7.5-7.5-7.5c-101.318,0-116.956,1.41-149.59-7.696c-1.411-0.395,2.16-0.276-54.575-0.276V251.664h41.162  c3.185,0,6.023-2.015,7.078-5.02c0.237-0.678,24.271-68.088,66.264-95.261c45.721-29.582,40.407-114.533,66.065-114.533  c23.931,0,22.392,89.286-13.655,142.823h-8.323c-4.143,0-7.5,3.357-7.5,7.5s3.357,7.5,7.5,7.5h131.21  c10.735,0,19.471,8.734,19.471,19.472c0,10.737-8.734,19.472-19.471,19.472h-10.632c-4.143,0-7.5,3.357-7.5,7.5s3.357,7.5,7.5,7.5  c10.735,0,19.471,8.733,19.471,19.47c0,10.737-8.734,19.474-19.471,19.474h-10.631c-4.143,0-7.5,3.357-7.5,7.5  c0,4.143,3.357,7.5,7.5,7.5c10.736,0,19.472,8.733,19.472,19.47c0,10.737-8.734,19.474-19.472,19.474h-10.632  c-4.143,0-7.5,3.357-7.5,7.5c0,4.143,3.357,7.5,7.5,7.5c10.735,0,19.471,8.733,19.471,19.47c0,10.736-8.734,19.472-19.471,19.472  h-27.739c-4.143,0-7.5,3.357-7.5,7.5c0,4.143,3.357,7.5,7.5,7.5h27.739c29.723,0,45.473-35.296,25.705-57.415  c20.572-10.043,25.851-36.911,10.633-53.943c20.576-10.046,25.845-36.919,10.631-53.943C504.078,239.542,512,227.752,512,214.145z   M172.728,423.467c0,4.567-3.716,8.283-8.282,8.283H138.63v-142.43c0-4.143-3.357-7.5-7.5-7.5s-7.5,3.357-7.5,7.5v177.546  c0,4.567-3.716,8.283-8.282,8.283H23.284c-4.566,0-8.282-3.716-8.282-8.283V202.956c0-4.566,3.716-8.281,8.282-8.281h92.063  c4.566,0,8.282,3.715,8.282,8.281v59.36c0,4.143,3.357,7.5,7.5,7.5c4.143,0,7.5-3.357,7.5-7.5v-35.201h25.816  c4.566,0,8.282,3.715,8.282,8.281V423.467z"/>
<g>
</g>
<g>
</g>
<g>
</g>
<g>
</g>
<g>
</g>
<g>
</g>
<g>
</g>
<g>
</g>
<g>
</g>
<g>
</g>
<g>
</g>
<g>
</g>
<g>
</g>
<g>
</g>
<g>
</g>
</svg>
